<?xml version="1.0" standalone="no"?><!DOCTYPE svg PUBLIC "-//W3C//DTD SVG 1.1//EN" "http://www.w3.org/Graphics/SVG/1.1/DTD/svg11.dtd"><svg t="1645520024467" class="icon" viewBox="0 0 1024 1024" version="1.1" xmlns="http://www.w3.org/2000/svg" p-id="6747" xmlns:xlink="http://www.w3.org/1999/xlink" width="200" height="200"><defs><style type="text/css"></style></defs><path d="M807.180348 216.809931c-162.758897-162.758897-427.607938-162.758897-590.394465 0-162.744571 162.786527-162.744571 427.592588 0 590.380138 162.78755 162.757874 427.635567 162.757874 590.394465 0C969.967898 644.402519 969.967898 379.596458 807.180348 216.809931zM633.955074 690.611957c10.910491 10.525728 10.910491 27.585265 0 38.110993-5.41022 5.291516-12.564154 7.893784-19.689435 7.893784-7.15598 0-14.308891-2.602268-19.74981-7.865131L390.039809 531.107173c-10.879792-10.555403-10.879792-27.629267 0-38.154995l204.474998-197.676152c10.908444-10.540054 28.559453-10.540054 39.439244 0 10.910491 10.510378 10.910491 27.585265 0 38.125319L449.20021 512.007163 633.955074 690.611957z" p-id="6748"></path></svg>