<?xml version="1.0" standalone="no"?><!DOCTYPE svg PUBLIC "-//W3C//DTD SVG 1.1//EN" "http://www.w3.org/Graphics/SVG/1.1/DTD/svg11.dtd"><svg t="1645448417008" class="icon" viewBox="0 0 1024 1024" version="1.1" xmlns="http://www.w3.org/2000/svg" p-id="1337" xmlns:xlink="http://www.w3.org/1999/xlink" width="200" height="200"><defs><style type="text/css"></style></defs><path d="M950.857143 36.571429 73.142857 36.571429c-20.214857 0-36.571429 16.374857-36.571429 36.571429l0 877.714286c0 20.214857 16.356571 36.571429 36.571429 36.571429l877.714286 0c20.214857 0 36.571429-16.356571 36.571429-36.571429L987.428571 73.142857C987.428571 52.928 971.072 36.571429 950.857143 36.571429zM888.429714 109.714286 731.428571 266.7136 574.429257 109.714286 888.429714 109.714286zM705.572571 292.571429 512 486.142171 336.714971 310.857143 530.285714 117.2864 705.572571 292.571429zM486.144 512 329.142857 668.999314 329.142857 355.000686 486.144 512zM109.714286 109.714286 486.144 109.714286 109.714286 486.142171 109.714286 109.714286zM109.714286 537.857829l182.857143-182.857143 0 350.571886-182.857143 182.857143L109.714286 537.857829zM135.572114 914.285714 512 537.857829 888.429714 914.285714 135.572114 914.285714zM914.285714 888.427886 537.857829 512 914.285714 135.572114 914.285714 888.427886z" p-id="1338" fill="#1296db"></path></svg>