<?xml version="1.0" standalone="no"?><!DOCTYPE svg PUBLIC "-//W3C//DTD SVG 1.1//EN" "http://www.w3.org/Graphics/SVG/1.1/DTD/svg11.dtd"><svg t="1645520017013" class="icon" viewBox="0 0 1024 1024" version="1.1" xmlns="http://www.w3.org/2000/svg" p-id="6609" xmlns:xlink="http://www.w3.org/1999/xlink" width="200" height="200"><defs><style type="text/css"></style></defs><path d="M82.326519 510.972601c0 237.564627 192.413288 430.132434 429.801906 430.132434 237.365082 0 429.779394-192.567807 429.779394-430.132434 0-237.56565-192.414311-430.134481-429.779394-430.134481C274.739806 80.83812 82.326519 273.40695 82.326519 510.972601zM606.588797 510.972601l-187.92609-185.740308c-10.212596-10.165524-11.227716-25.592888-2.321882-34.477232 8.950859-8.885368 24.465205-7.868201 34.675754 2.298346l199.905936 197.651592c5.813403 5.811356 8.55484 13.304004 8.245801 20.35356 0.264013 6.986111-2.475378 14.411221-8.266267 20.180622l-199.884446 197.651592c-10.210549 10.141988-25.746384 11.18269-34.675754 2.297322-8.905834-8.886391-7.891737-24.311709 2.321882-34.477232L606.588797 510.972601z" p-id="6610"></path></svg>