<?xml version="1.0" standalone="no"?><!DOCTYPE svg PUBLIC "-//W3C//DTD SVG 1.1//EN" "http://www.w3.org/Graphics/SVG/1.1/DTD/svg11.dtd"><svg t="1645524631127" class="icon" viewBox="0 0 1024 1024" version="1.1" xmlns="http://www.w3.org/2000/svg" p-id="15275" xmlns:xlink="http://www.w3.org/1999/xlink" width="200" height="200"><defs><style type="text/css"></style></defs><path d="M324.953333 626.206667a53.4 53.4 0 0 1 75.426667 0L490 715.833333l218.286667-218.293333a53.333333 53.333333 0 0 1 75.426666 0L981.333333 695.166667V181.333333a53.393333 53.393333 0 0 0-53.333333-53.333333H181.333333a53.393333 53.393333 0 0 0-53.333333 53.333333v641.833334zM362.666667 256c58.813333 0 106.666667 47.853333 106.666666 106.666667s-47.853333 106.666667-106.666666 106.666666-106.666667-47.853333-106.666667-106.666666 47.853333-106.666667 106.666667-106.666667z m-64 106.666667a64 64 0 1 1 64 64 64.073333 64.073333 0 0 1-64-64z m682.666666 392.833333V928a53.393333 53.393333 0 0 1-53.333333 53.333333H284.833333l453.626667-453.62a10.666667 10.666667 0 0 1 15.08 0zM224.5 981.333333H181.333333a53.393333 53.393333 0 0 1-53.333333-53.333333v-44.5l227.126667-227.12a10.666667 10.666667 0 0 1 15.08 0L459.833333 746zM64 682.666667a21.333333 21.333333 0 0 1-21.333333-21.333334V96a53.393333 53.393333 0 0 1 53.333333-53.333333h565.333333a21.333333 21.333333 0 0 1 0 42.666666H96a10.666667 10.666667 0 0 0-10.666667 10.666667v565.333333a21.333333 21.333333 0 0 1-21.333333 21.333334z" fill="#2c2c2c" p-id="15276"></path></svg>