<?xml version="1.0" standalone="no"?><!DOCTYPE svg PUBLIC "-//W3C//DTD SVG 1.1//EN" "http://www.w3.org/Graphics/SVG/1.1/DTD/svg11.dtd"><svg t="1645518624492" class="icon" viewBox="0 0 1024 1024" version="1.1" xmlns="http://www.w3.org/2000/svg" p-id="3784" xmlns:xlink="http://www.w3.org/1999/xlink" width="200" height="200"><defs><style type="text/css"></style></defs><path d="M164.778667 263.978667a425.258667 425.258667 0 0 1 236.8-164.096C629.162667 38.826667 863.146667 173.952 924.117333 401.493333c61.013333 227.626667-74.069333 461.610667-301.653333 522.581334C394.794667 985.173333 160.853333 850.048 99.84 622.506667l82.432-22.101334a341.333333 341.333333 0 1 0 54.570667-290.432l80.384 51.2-182.912 54.101334L85.333333 213.333333l79.445334 50.645334z" p-id="3785"></path><path d="M512 512m-85.333333 0a85.333333 85.333333 0 1 0 170.666666 0 85.333333 85.333333 0 1 0-170.666666 0Z" p-id="3786"></path></svg>