<?xml version="1.0" standalone="no"?><!DOCTYPE svg PUBLIC "-//W3C//DTD SVG 1.1//EN" "http://www.w3.org/Graphics/SVG/1.1/DTD/svg11.dtd"><svg t="1645520584785" class="icon" viewBox="0 0 1024 1024" version="1.1" xmlns="http://www.w3.org/2000/svg" p-id="12301" xmlns:xlink="http://www.w3.org/1999/xlink" width="200" height="200"><defs><style type="text/css"></style></defs><path d="M474.026667 245.12c13.952-1.706667 27.861333-2.56 41.770666-2.688v68.736c0 6.997333 8.064 10.88 13.525334 6.570667l137.984-108.757334c4.266667-3.413333 4.266667-9.856 0-13.226666l-137.856-108.629334a8.362667 8.362667 0 0 0-13.568 6.570667l-0.213334 68.821333a431.36 431.36 0 0 0-338.773333 165.888 429.568 429.568 0 0 0-87.338667 325.248h80.64a350.165333 350.165333 0 0 1 69.546667-276.096 349.354667 349.354667 0 0 1 105.984-90.666666 350.08 350.08 0 0 1 128.256-41.770667z" p-id="12302"></path><path d="M904.192 424.533333H335.616a34.389333 34.389333 0 0 0-34.474667 34.432v445.269334c0 19.072 15.402667 34.432 34.474667 34.432h568.576c19.072 0 34.474667-15.36 34.474667-34.432V458.965333a34.389333 34.389333 0 0 0-34.474667-34.432z m-47.36 432.384H382.976v-350.634666h473.856v350.634666z" p-id="12303"></path></svg>